<?xml version="1.0" encoding="utf-8"?>
<!-- Generator: Adobe Illustrator 21.1.0, SVG Export Plug-In . SVG Version: 6.00 Build 0)  -->
<svg version="1.1" id="Ebene_1" xmlns="http://www.w3.org/2000/svg" xmlns:xlink="http://www.w3.org/1999/xlink" x="0px" y="0px"
	 viewBox="0 0 512 512" style="enable-background:new 0 0 512 512;" xml:space="preserve">
<style type="text/css">
	.st0{fill:#333333;}
</style>
<path id="dribbble-icon" class="st0" d="M256,50C142.2,50,50,142.2,50,256s92.2,206,206,206s206-92.2,206-206
	C462,142.3,369.8,50,256,50z M425.7,246.4c-44.2-7.3-84.9-7.6-121.9-1.3c-4.2-9.7-8.5-19.3-13.2-28.8c39.6-17.2,71.5-40.5,95.2-70.1
	C409,173.6,423.5,208.4,425.7,246.4z M359.7,121.4c-20.7,26.7-49.2,47.8-85.6,63.2c-17.4-31.9-37.4-63.1-59.9-93.3
	c13.4-3.4,27.3-5.4,41.7-5.4C295.1,85.9,331,99.2,359.7,121.4z M179.2,104.4c22.9,29.9,43.1,60.7,60.7,92.4
	c-41.7,12.3-91.5,18.6-149.1,19C102.7,167.1,135.5,126.6,179.2,104.4z M85.8,256c0-1.5,0.2-2.9,0.2-4.4
	c66.1-0.1,123.1-7.7,170.8-22.7c4,8.1,7.8,16.3,11.5,24.6c-58,18.1-105.8,55.3-143.1,111.2C100.7,335.3,85.8,297.3,85.8,256z
	 M151.6,390.1c33.8-53,77-87.5,130.4-103.5c15.9,41.5,27.6,84.3,35.1,128.1c-19,7.3-39.5,11.5-61.1,11.5
	C216.6,426.2,180.4,412.6,151.6,390.1z M350.5,397.5c-7.5-40.4-18.5-79.9-33-118.4c32.2-4.5,67.6-3.4,106.4,3.4
	C416.4,330.3,389.1,371.6,350.5,397.5z"/>
</svg>
